<?xml version="1.0" encoding="utf-8"?>
<!-- Generator: Adobe Illustrator 21.1.0, SVG Export Plug-In . SVG Version: 6.00 Build 0)  -->
<svg version="1.1"
	 id="svg2816" inkscape:version="0.91 r13725" sodipodi:docname="icon.svg" xmlns:cc="http://creativecommons.org/ns#" xmlns:dc="http://purl.org/dc/elements/1.1/" xmlns:inkscape="http://www.inkscape.org/namespaces/inkscape" xmlns:rdf="http://www.w3.org/1999/02/22-rdf-syntax-ns#" xmlns:sodipodi="http://sodipodi.sourceforge.net/DTD/sodipodi-0.dtd" xmlns:svg="http://www.w3.org/2000/svg"
	 xmlns="http://www.w3.org/2000/svg" xmlns:xlink="http://www.w3.org/1999/xlink" x="0px" y="0px" viewBox="0 0 340.2 340.2"
	 style="enable-background:new 0 0 340.2 340.2;" xml:space="preserve">
<style type="text/css">
	.st0{fill:#FFFFFF;}
</style>
<sodipodi:namedview  bordercolor="#666666" borderopacity="1.0" id="namedview2820" inkscape:bbox-nodes="true" inkscape:bbox-paths="true" inkscape:current-layer="Template" inkscape:cx="131.22671" inkscape:cy="378.13107" inkscape:document-units="mm" inkscape:guide-bbox="true" inkscape:pageopacity="0.0" inkscape:pageshadow="2" inkscape:snap-bbox="true" inkscape:snap-bbox-edge-midpoints="true" inkscape:snap-bbox-midpoints="true" inkscape:snap-global="true" inkscape:snap-grids="true" inkscape:window-height="956" inkscape:window-maximized="0" inkscape:window-width="1469" inkscape:window-x="219" inkscape:window-y="0" inkscape:zoom="0.35355339" pagecolor="#ffffff" showgrid="false" showguides="true" units="mm">
	<sodipodi:guide  id="guide3337" orientation="1,0" position="212.59843,0"></sodipodi:guide>
	<sodipodi:guide  id="guide3339" orientation="0,1" position="0,212.59843"></sodipodi:guide>
	<inkscape:grid  empspacing="5" id="grid3351" spacingx="1mm" spacingy="1mm" type="xygrid" units="mm"></inkscape:grid>
</sodipodi:namedview>
<g>
	<path class="st0" d="M317.7,125.9H133.6c-4.3,0-8.7,1.8-12.2,5.3l-32.1,32.7c0,0-0.1,0.1-0.1,0.1c-3.3,3.4-3.3,8.9,0.1,12.2
		l32.1,32.7c3.5,3.5,7.8,5.3,12.2,5.3h184.1c5.2,0,8.7-3.5,8.7-8.8v-70.7C326.4,129.4,322.9,125.9,317.7,125.9z"/>
	<path class="st0" d="M121.4,85.2c3.5,3.5,7.8,5.3,12.2,5.3h123.3c5.2,0,8.7-3.5,8.7-8.8V10.9c0-5.3-3.5-8.8-8.7-8.8H133.6
		c-4.3,0-8.7,1.8-12.2,5.3L89.3,40.1c0,0-0.1,0.1-0.1,0.1c-3.3,3.4-3.3,8.9,0.1,12.2L121.4,85.2z"/>
	<path class="st0" d="M248.2,249.7H133.6c-4.3,0-8.7,1.8-12.2,5.3l-32.1,32.7c0,0-0.1,0.1-0.1,0.1c-3.3,3.4-3.3,8.9,0.1,12.2
		l32.1,32.7c3.5,3.5,7.8,5.3,12.2,5.3h114.6c5.2,0,8.7-3.5,8.7-8.8v-70.7C256.9,253.2,253.5,249.7,248.2,249.7z"/>
	<path class="st0" d="M65.9,46.3c0-11.5-7.2-21.4-17.4-25V10.9H31.1v10.4c-10.1,3.6-17.4,13.5-17.4,25c0,11.6,7.2,21.4,17.4,25v73.8
		c-10.1,3.6-17.4,13.5-17.4,25c0,11.6,7.2,21.4,17.4,25v73.8c-10.1,3.6-17.4,13.5-17.4,25c0,11.5,7.2,21.4,17.4,25v10.4h17.4v-10.4
		c10.1-3.6,17.4-13.5,17.4-25c0-11.6-7.2-21.4-17.4-25v-73.8c10.1-3.6,17.4-13.5,17.4-25c0-11.6-7.2-21.4-17.4-25V71.3
		C58.6,67.7,65.9,57.8,65.9,46.3z"/>
</g>
</svg>
