<?xml version="1.0" encoding="utf-8"?>
<!-- Generator: Adobe Illustrator 21.1.0, SVG Export Plug-In . SVG Version: 6.00 Build 0)  -->
<svg version="1.1" id="图层_1" xmlns="http://www.w3.org/2000/svg" xmlns:xlink="http://www.w3.org/1999/xlink" x="0px" y="0px"
	 viewBox="0 0 592 221" style="enable-background:new 0 0 592 221;" xml:space="preserve">
<style type="text/css">
	.st0{fill:#EFE7C1;}
	.st1{fill-rule:evenodd;clip-rule:evenodd;fill:#C18080;}
	.st2{fill-rule:evenodd;clip-rule:evenodd;fill:url(#SVGID_1_);stroke:url(#SVGID_2_);stroke-width:2.6;stroke-miterlimit:10;}
	.st3{fill-rule:evenodd;clip-rule:evenodd;fill:url(#SVGID_3_);}
	.st4{fill-rule:evenodd;clip-rule:evenodd;fill:url(#SVGID_4_);}
	.st5{fill-rule:evenodd;clip-rule:evenodd;fill:url(#SVGID_5_);}
</style>
<path class="st0" d="M226,72.3C226,56.6,235,47,247.4,47c5.9,0,10.5,2.9,13.3,5.9l-3.1,3.6c-2.5-2.8-5.9-4.7-10.2-4.7
	c-9.5,0-15.8,7.7-15.8,20.3c0,12.6,6,20.6,15.6,20.6c4.7,0,8.3-2,11.6-5.6l3.1,3.5c-3.8,4.5-8.5,7-14.9,7
	C234.9,97.6,226,88.1,226,72.3z M271.2,47.9h12c15,0,22.8,8.9,22.8,24.2c0,15.4-7.8,24.6-22.6,24.6h-12.2V47.9z M282.7,92.2
	c11.9,0,17.6-7.6,17.6-20.1c0-12.5-5.7-19.7-17.6-19.7h-6v39.8H282.7z M316.8,47.9h13.6c11,0,18.2,3.7,18.2,14.2
	c0,10.2-7.1,15-17.9,15h-8.3v19.8h-5.5V47.9z M329.8,72.4c8.9,0,13.2-3.1,13.2-10.4c0-7.3-4.5-9.7-13.5-9.7h-7.2v20.1H329.8z
	 M352.3,76h16.9v4.3h-16.9V76z M378.9,47.9h12c15,0,22.8,8.9,22.8,24.2c0,15.4-7.8,24.6-22.6,24.6h-12.2V47.9z M390.5,92.2
	c11.9,0,17.6-7.6,17.6-20.1c0-12.5-5.7-19.7-17.6-19.7h-6v39.8H390.5z M446.1,81.3h-18.2l-5,15.4h-5.5L434,47.9h6.1l16.8,48.9H451
	L446.1,81.3z M444.7,77l-2.5-7.9c-1.9-5.5-3.4-10.8-5.1-16.6h-0.3c-1.6,5.8-3.2,11-5,16.6l-2.5,7.9H444.7z"/>
<path class="st0" d="M250.6,136.7c3.6,11.3,10.2,20.5,19.8,24.6c-0.8,0.8-1.9,2.1-2.5,3.1c-9.8-4.6-16.3-13.9-20.2-25.6
	c-2.4,9.9-7.7,19.9-20.2,25.6c-0.6-0.9-1.7-2.1-2.5-2.8c12.6-5.5,17.6-15.4,19.6-25H226v-3.4h19.3c0.8-5.4,0.8-10.5,0.8-14.4h3.5
	c-0.1,4-0.1,9-0.9,14.4h20.9v3.4H250.6z M286,134.1c-2.5,3.1-5.9,6-9.1,7.7c-0.4-0.9-1.2-1.9-1.9-2.6c3.6-1.6,7.5-4.8,9.9-8.2h-9.4
	v-2.8H286v-9.4h3.1v9.4h10.4v2.8h-9.8c2.5,1.5,7.1,4.5,8.4,5.4l-1.9,2.5c-1.3-1.2-4.6-3.8-7.1-5.5v7.2H286V134.1z M293.7,160.8
	c-1.2-0.9-2.8-1.9-4.5-2.9c-3.6,3-7.9,4.9-12.5,6.1c-0.3-0.8-1-2-1.6-2.6c4.2-0.9,8.1-2.6,11.4-5c-2.6-1.3-5.3-2.6-7.8-3.5
	c1.1-1.6,2.2-3.5,3.3-5.5h-5.5v-2.9h6.9c0.6-1.2,1-2.2,1.4-3.3l3,0.6c-0.3,0.9-0.7,1.8-1.2,2.7h8.5l0.6-0.1l1.9,0.8
	c-1.3,4.3-3.4,7.8-6.1,10.6c1.7,0.9,3.2,1.9,4.4,2.6L293.7,160.8z M280.7,127.8c-0.5-1.8-1.8-4.5-3.2-6.6l2.4-1
	c1.5,2,2.9,4.7,3.3,6.5L280.7,127.8z M285.2,147.5c-0.7,1.5-1.6,3-2.4,4.3c2,0.9,4.1,1.8,6,2.8c2.1-1.9,3.8-4.3,4.9-7H285.2z
	 M298,121.2c-1.5,2.3-3.1,4.8-4.5,6.5l-2.2-1.1c1.3-1.8,3-4.7,3.8-6.7L298,121.2z M316.6,131.7c-1.2,7.6-2.9,13.8-5.5,19
	c2.6,4.8,5.9,8.5,10.1,10.8c-0.8,0.6-1.7,1.8-2.2,2.6c-4-2.4-7.2-5.9-9.7-10.3c-3,4.5-6.8,8.1-12,10.9c-0.4-0.7-1.3-2.1-1.9-2.7
	c5.5-2.7,9.5-6.5,12.3-11.3c-2-4.1-3.4-8.8-4.6-13.9c-1,2.6-2.2,5-3.6,6.9c-0.5-0.5-1.8-1.6-2.5-2c3.8-5.3,6.1-13.6,7.4-22.2l3,0.5
	c-0.5,3-1,6-1.8,8.8H320v3.1H316.6z M305,131.7c1,5.7,2.5,11,4.5,15.6c1.9-4.4,3.2-9.5,4-15.6H305z M340.5,143.8
	c-1.9,0.7-3.9,1.4-5.8,2v14.5c0,2-0.5,2.8-1.6,3.4c-1.2,0.6-3,0.7-6.2,0.6c-0.2-0.8-0.6-2.2-1-3.1c2.3,0.1,4.2,0.1,4.8,0
	c0.7,0,0.9-0.2,0.9-0.9v-13.5l-6.1,2l-0.9-3.2c1.9-0.5,4.4-1.3,7-2.2v-11.3h-6.4v-3.1h6.4v-10.2h3.1v10.2h5.8v3.1h-5.8v10.3l5.4-1.7
	L340.5,143.8z M359.3,142.3v6.4h9.7v15.6H366v-2h-16v2.2h-3v-15.8h9.1v-6.4h-10.3c-0.5,7.4-1.8,15.9-6.1,22.1
	c-0.6-0.6-2-1.5-2.7-1.9c5.2-7.7,5.6-18.6,5.6-26.6v-15h26.1v12.6h-9.6v5.7h11.3v3H359.3z M356.2,139.4v-5.7h-10.1v2.4
	c0,1.1,0,2.2-0.1,3.3H356.2z M346.1,124v6.8h19.7V124H346.1z M366,151.6h-16v8h16V151.6z M392.9,120.9c-3.4,8.3-8.8,15.6-14.7,20.4
	c-0.6-0.7-2-1.9-2.8-2.5c6-4.4,11.1-11.3,14-18.9L392.9,120.9z M413.4,137.8c0,0,0,1.2-0.1,1.7c-0.8,15.3-1.5,21-3.2,22.9
	c-1,1.1-2.1,1.5-3.8,1.6c-1.7,0.1-4.8,0.1-7.9-0.2c-0.1-1-0.5-2.4-1.1-3.3c3.4,0.3,6.5,0.4,7.7,0.4c1.1,0,1.6-0.2,2.2-0.6
	c1.3-1.3,2-6.3,2.7-19.2h-14.2c-1.4,9.9-4.6,19-17.2,23.6c-0.4-0.9-1.4-2.2-2.1-2.8c11.9-4,14.7-12.1,15.8-20.8h-9.9v-3.3H413.4z
	 M406.5,119.9c3.1,6.8,9.2,14.4,14.4,18.2c-0.9,0.7-2,1.9-2.7,2.8c-5.2-4.4-11.3-12.5-14.7-19.8L406.5,119.9z M441.9,147.5
	c-0.9-1.8-3-5.1-4.8-7.7v24.7h-3.2V140c-1.9,5.9-4.5,11.6-7.2,15.1c-0.4-0.9-1.2-2.2-1.8-3c3.4-4.3,6.9-12.3,8.6-19.3h-7.3v-3.2h7.7
	v-10.8h3.2v10.8h7.4v3.2h-7.4v2.7c1.7,2.1,6,7.9,7,9.3L441.9,147.5z M470.7,139.1h-7.4v25.4H460v-25.4h-9.6v0.7
	c0,7.4-0.8,17.7-5.4,24.6c-0.6-0.6-2-1.5-2.8-1.8c4.5-6.6,5-15.9,5-22.8v-15.5c6.4-1.2,13.6-3.1,17.7-4.9l2.9,2.6
	c-4.6,1.9-11.3,3.6-17.4,4.7v9.3h20.3V139.1z M486.1,134.4c1.6,1.7,5.6,6.4,6.5,7.6l-1.8,2.8c-0.9-1.5-3-4.5-4.7-6.7v26.2H483v-24.7
	c-1.8,5.7-4.1,11.2-6.6,14.5c-0.4-1-1.2-2.3-1.7-3.1c3.1-4,6.4-11.8,8-18.5h-7.2v-3.1h7.5v-10.6h3.1v10.6h5.7v3.1h-5.7V134.4z
	 M521,159v3.1h-27.9v-40.2h27.2v3.1h-23.9V159H521z M506.8,150.9v-8.2h-7.4v-2.9h7.4v-7.4h-8.3v-3h20.5v3h-9.2v7.4h8.1v2.9h-8.1v8.2
	h9.7v2.9h-21.5v-2.9H506.8z M536.8,127.2c-1.1,6.8-3.6,11.9-9.4,15c-0.5-0.7-1.4-1.9-2.1-2.4c5.2-2.7,7.4-6.9,8.3-12.6h-7.4v-3h7.8
	c0.2-1.7,0.3-3.4,0.4-5.3h3.3c-0.1,1.8-0.2,3.6-0.4,5.3h10.3c0,0-0.1,1-0.1,1.5c-0.6,9-1.2,12.4-2.3,13.7c-0.8,0.9-1.7,1.2-2.8,1.2
	c-1.1,0.1-3,0.1-5,0c-0.1-1-0.4-2.2-0.9-3c2,0.2,3.8,0.2,4.5,0.2c0.7,0.1,1.1-0.1,1.5-0.5c0.7-0.8,1.3-3.5,1.8-10.2H536.8z
	 M552.3,149c4.3,5.1,11.6,9.4,18.5,11.4c-0.7,0.7-1.7,2-2.2,2.8c-6.9-2.4-14.2-7-18.8-12.7v14h-3.4v-14.3
	c-4.7,5.8-12.1,10.8-18.8,13.4c-0.5-0.9-1.5-2.1-2.2-2.7c6.6-2.3,13.9-6.9,18.3-11.9h-17.3v-3.1h19.9v-5h3.4v5h19.5v3.1H552.3z
	 M568.7,139.7h-17.3V123h17.3V139.7z M565.4,125.9h-10.9v10.8h10.9V125.9z"/>
<g>
	<polygon class="st1" points="200.3,110.9 155.4,189.6 65.4,189.6 20.5,110.9 65.4,32.2 155.4,32.2 	"/>
	<linearGradient id="SVGID_1_" gradientUnits="userSpaceOnUse" x1="110.4062" y1="189.5859" x2="110.4062" y2="32.2134">
		<stop  offset="0" style="stop-color:#020203"/>
		<stop  offset="1" style="stop-color:#2F2F32"/>
	</linearGradient>
	<linearGradient id="SVGID_2_" gradientUnits="userSpaceOnUse" x1="110.4062" y1="190.8859" x2="110.4062" y2="30.9134">
		<stop  offset="0" style="stop-color:#AD9C53"/>
		<stop  offset="1" style="stop-color:#E6DDAC"/>
	</linearGradient>
	<polygon class="st2" points="200.3,110.9 155.4,189.6 65.4,189.6 20.5,110.9 65.4,32.2 155.4,32.2 	"/>
	<linearGradient id="SVGID_3_" gradientUnits="userSpaceOnUse" x1="111.7756" y1="110.7874" x2="111.7756" y2="60.3156">
		<stop  offset="0" style="stop-color:#AD9C53"/>
		<stop  offset="1" style="stop-color:#E6DDAC"/>
	</linearGradient>
	<polygon class="st3" points="111.8,60.3 163.7,85.6 111.8,110.8 59.8,85.6 	"/>
	<linearGradient id="SVGID_4_" gradientUnits="userSpaceOnUse" x1="111.7756" y1="135.6095" x2="111.7756" y2="99.6588">
		<stop  offset="0" style="stop-color:#AD9C53"/>
		<stop  offset="1" style="stop-color:#E6DDAC"/>
	</linearGradient>
	<polygon class="st4" points="141.7,99.7 163.7,110.4 111.8,135.6 59.8,110.4 81.9,99.7 111.8,114.2 	"/>
	<linearGradient id="SVGID_5_" gradientUnits="userSpaceOnUse" x1="111.7756" y1="160.9015" x2="111.7756" y2="124.9508">
		<stop  offset="0" style="stop-color:#AD9C53"/>
		<stop  offset="1" style="stop-color:#E6DDAC"/>
	</linearGradient>
	<polygon class="st5" points="141.7,125 163.7,135.7 111.8,160.9 59.8,135.7 81.9,125 111.8,139.5 	"/>
</g>
</svg>
