<?xml version="1.0" encoding="utf-8"?>
<!-- Generator: Adobe Illustrator 21.1.0, SVG Export Plug-In . SVG Version: 6.00 Build 0)  -->
<svg version="1.1"
	 id="svg2816" inkscape:version="0.91 r13725" sodipodi:docname="icon.svg" xmlns:cc="http://creativecommons.org/ns#" xmlns:dc="http://purl.org/dc/elements/1.1/" xmlns:inkscape="http://www.inkscape.org/namespaces/inkscape" xmlns:rdf="http://www.w3.org/1999/02/22-rdf-syntax-ns#" xmlns:sodipodi="http://sodipodi.sourceforge.net/DTD/sodipodi-0.dtd" xmlns:svg="http://www.w3.org/2000/svg"
	 xmlns="http://www.w3.org/2000/svg" xmlns:xlink="http://www.w3.org/1999/xlink" x="0px" y="0px" viewBox="0 0 340.2 340.2"
	 style="enable-background:new 0 0 340.2 340.2;" xml:space="preserve">
<style type="text/css">
	.st0{fill:#FFFFFF;}
</style>
<sodipodi:namedview  bordercolor="#666666" borderopacity="1.0" id="namedview2820" inkscape:bbox-nodes="true" inkscape:bbox-paths="true" inkscape:current-layer="Template" inkscape:cx="131.22671" inkscape:cy="378.13107" inkscape:document-units="mm" inkscape:guide-bbox="true" inkscape:pageopacity="0.0" inkscape:pageshadow="2" inkscape:snap-bbox="true" inkscape:snap-bbox-edge-midpoints="true" inkscape:snap-bbox-midpoints="true" inkscape:snap-global="true" inkscape:snap-grids="true" inkscape:window-height="956" inkscape:window-maximized="0" inkscape:window-width="1469" inkscape:window-x="219" inkscape:window-y="0" inkscape:zoom="0.35355339" pagecolor="#ffffff" showgrid="false" showguides="true" units="mm">
	<sodipodi:guide  id="guide3337" orientation="1,0" position="212.59843,0"></sodipodi:guide>
	<sodipodi:guide  id="guide3339" orientation="0,1" position="0,212.59843"></sodipodi:guide>
	<inkscape:grid  empspacing="5" id="grid3351" spacingx="1mm" spacingy="1mm" type="xygrid" units="mm"></inkscape:grid>
</sodipodi:namedview>
<path class="st0" d="M115.6,94.5c3.5,2.7,7.8,4.1,12.3,4.1H262c5.2,0,8.8-2.7,8.8-6.8V37.4c0-4.1-3.5-6.8-8.8-6.8H127.9
	c-4.3,0-8.8,1.4-12.3,4.1L83.3,59.8l-0.1,0.1c-3.3,2.6-3.3,6.8,0.1,9.4L115.6,94.5z"/>
<path class="st0" d="M115.6,200c3.5,2.7,7.8,4.1,12.3,4.1H312c5.2,0,8.8-2.7,8.8-6.8v-54.5c0-4.1-3.5-6.8-8.8-6.8H127.9
	c-4.3,0-8.8,1.4-12.3,4.1l-32.3,25.2l-0.1,0.1c-3.3,2.6-3.3,6.8,0.1,9.4L115.6,200z"/>
<path class="st0" d="M115.6,305.5c3.5,2.7,7.8,4.1,12.3,4.1H262c5.2,0,8.8-2.7,8.8-6.8v-54.5c0-4.1-3.5-6.8-8.8-6.8H127.9
	c-4.3,0-8.8,1.4-12.3,4.1l-32.3,25.2l-0.1,0.1c-3.3,2.6-3.3,6.8,0.1,9.4L115.6,305.5z"/>
<rect x="31" y="33.1" class="st0" width="18" height="274"/>
<circle class="st0" cx="40" cy="64.6" r="20"/>
<circle class="st0" cx="40" cy="170.1" r="20"/>
<circle class="st0" cx="40" cy="275.6" r="20"/>
</svg>
